<svg xmlns="http://www.w3.org/2000/svg" viewBox="0 0 448 512"><path d="M224 373.12c-25.24-31.67-40.08-59.43-45-83.18-22.55-88 112.61-88 90.06 0-5.45 24.25-20.29 52-45.06 83.18zm138.15 73.23c-42.06 18.31-83.67-10.88-119.3-50.47 103.9-130.07 46.11-200-18.85-200-54.92 0-85.16 46.51-73.28 100.5 6.93 29.19 25.23 62.39 54.43 99.5-32.53 36.05-60.55 52.69-85.15 54.92-50 7.43-89.11-41.06-71.3-91.09 15.1-39.16 111.72-231.18 115.87-241.56 15.75-30.07 25.56-57.4 59.38-57.4 32.34 0 43.4 25.94 60.37 59.87 36 70.62 89.35 177.48 114.84 239.09 13.17 33.07-1.37 71.29-37.01 86.64zm47-136.12C280.27 35.93 273.13 32 224 32c-45.52 0-64.87 31.67-84.66 72.79C33.18 317.1 22.89 347.19 22 349.81-3.22 419.14 48.74 480 111.63 480c21.71 0 60.61-6.06 112.37-62.4 58.68 63.78 101.26 62.4 112.37 62.4 62.89 0 114.85-60.86 89.61-130.19-2.66-6.87-21.81-54.88-138.78-197.28zM61.75 403.77c-13.13 26.08 2.16 46.61 22.32 46.61 13.43 0 28.27-8.49 44.61-27.52 26.21-30.4 65.67-94.61 107.23-154.46-19.2-23.51-39.7-41.42-56.76-50.75-38.71-22.05-74.54-23.16-92.8 5.22-5.99 9.34-25.53 44.5-33.4 59.5-10.5 20.34-21.76 42.54-31.6 61.91-9.68 19.06-18.15 36.49-24.77 51.43-4.03 9.13-7.2 17.07-9.77 24.28-3.1 8.7-3.51 15.73-1.92 27.24zm272.88-117.33c42.06 52.33 83.67 102.73 119.3 148.43 34.31 43.95 62.1 28.47 77.91-1.32 21.38-40.75 2.77-93.7-28.07-145.77-22.18-37.62-76.5-128.7-113.95-191.64-11.16-18.7-23.81-42.71-42.14-42.14-22.58.68-37 32.5-47.19 54.58-7.85 16.94-28.47 69.45-41.33 99.33-30.93 73.74-65.3 153.26-85.71 198.42-9.68 21.33-15.13 35.05-18.01 44.01 6.39-3.14 14.92-8.5 25.6-17.5 45.32-38.14 95.17-102.72 153.59-146.4z" fill="#FF385C"/></svg>
